<svg width="246" height="48" viewBox="0 0 246 48" fill="none" xmlns="http://www.w3.org/2000/svg">
<path d="M28.636 2.58C29.9533 2.64933 31.184 2.90933 32.328 3.36C33.5067 3.776 34.512 4.36533 35.344 5.128C36.2107 5.89066 36.8867 6.82666 37.372 7.936C37.892 9.01066 38.152 10.2587 38.152 11.68C38.152 12.8587 37.9093 14.124 37.424 15.476L33.316 26.968C32.7267 28.632 31.9467 30.0707 30.976 31.284C30.04 32.4973 29 33.5027 27.856 34.3C26.712 35.0973 25.4987 35.704 24.216 36.12C22.9333 36.5013 21.6507 36.692 20.368 36.692C18.912 36.692 17.5427 36.4493 16.26 35.964C14.9773 35.444 13.8853 34.7507 12.984 33.884L9.5 43.712C9.15333 44.7173 8.668 45.48 8.044 46C7.42 46.5547 6.744 46.9013 6.016 47.04C5.32267 47.2133 4.62933 47.196 3.936 46.988C3.24267 46.8147 2.67067 46.4853 2.22 46C1.73467 45.5493 1.40533 44.96 1.232 44.232C1.05867 43.504 1.14533 42.6893 1.492 41.788L14.648 4.556C15.064 3.27333 15.7227 2.35466 16.624 1.8C17.56 1.21066 18.496 0.915998 19.432 0.915998C20.368 0.915998 21.2 1.176 21.928 1.696C22.656 2.216 23.0373 2.892 23.072 3.724C23.8693 3.16933 24.788 2.84 25.828 2.736C26.9027 2.59733 27.8387 2.54533 28.636 2.58ZM28.792 15.736C29.1387 14.6613 29.2773 13.7427 29.208 12.98C29.1387 12.1827 28.9653 11.5413 28.688 11.056C28.4107 10.536 28.0467 10.1547 27.596 9.912C27.1453 9.66933 26.6947 9.51333 26.244 9.444C25.1 9.34 24.0253 9.56533 23.02 10.12C22.0147 10.6747 21.1307 11.6973 20.368 13.188L16.676 23.848V23.744C16.6413 23.952 16.6067 24.16 16.572 24.368C16.572 24.5413 16.572 24.7147 16.572 24.888C16.572 26.0667 16.9707 27.0373 17.768 27.8C18.6 28.5627 19.588 28.944 20.732 28.944C21.7373 28.944 22.6907 28.6147 23.592 27.956C24.4933 27.2973 25.1693 26.3093 25.62 24.992L28.792 15.736ZM59.4253 32.948C59.7026 32.0467 60.2399 31.4053 61.0373 31.024C61.8693 30.6427 62.684 30.5213 63.4813 30.66C64.3133 30.764 64.9719 31.1107 65.4573 31.7C65.9773 32.2893 66.0639 33.104 65.7173 34.144C64.8506 36.64 63.724 38.7547 62.3373 40.488C60.9506 42.1867 59.4079 43.5733 57.7093 44.648C56.0106 45.7227 54.2253 46.5027 52.3533 46.988C50.4813 47.4733 48.6439 47.716 46.8413 47.716C44.9346 47.716 43.1666 47.4733 41.5373 46.988C39.9079 46.5373 38.4866 45.8787 37.2733 45.012C36.0946 44.1107 35.1586 43.036 34.4653 41.788C33.7719 40.54 33.4253 39.136 33.4253 37.576C33.4253 36.9867 33.4773 36.38 33.5813 35.756C33.7199 35.132 33.8933 34.508 34.1013 33.884L37.1693 24.992C37.6199 23.7093 38.2266 22.5827 38.9893 21.612C39.7519 20.6067 40.6186 19.7747 41.5893 19.116C42.5599 18.4227 43.5999 17.92 44.7093 17.608C45.8533 17.2613 46.9973 17.088 48.1413 17.088C49.5973 17.088 50.9319 17.3133 52.1453 17.764C53.3586 18.2147 54.3813 18.8387 55.2133 19.636C56.0799 20.3987 56.7386 21.3173 57.1893 22.392C57.6746 23.432 57.9173 24.576 57.9173 25.824C57.9173 26.6907 57.7786 27.644 57.5013 28.684C57.1546 29.8627 56.6346 30.92 55.9413 31.856C55.2826 32.792 54.5026 33.5893 53.6013 34.248C52.6999 34.9067 51.6946 35.4267 50.5853 35.808C49.5106 36.1547 48.3839 36.328 47.2053 36.328C46.1653 36.328 45.1773 36.1893 44.2413 35.912C43.3399 35.6347 42.5079 35.2533 41.7453 34.768L41.3293 35.756C41.1559 36.2067 41.0693 36.692 41.0693 37.212C41.0693 38.4253 41.6239 39.448 42.7333 40.28C43.8426 41.112 45.3506 41.528 47.2573 41.528C48.3666 41.528 49.5106 41.372 50.6893 41.06C51.9026 40.7133 53.0466 40.1933 54.1213 39.5C55.2306 38.8067 56.2359 37.9227 57.1373 36.848C58.0733 35.7733 58.8359 34.4733 59.4253 32.948ZM47.9853 23.276C47.3959 23.276 46.8066 23.5013 46.2173 23.952C45.6626 24.368 45.2293 24.9747 44.9173 25.772L43.8253 28.892C44.3106 29.1693 44.8653 29.36 45.4893 29.464C46.1479 29.568 46.7893 29.568 47.4133 29.464C48.0373 29.36 48.5919 29.1347 49.0773 28.788C49.5973 28.4067 49.9613 27.8693 50.1693 27.176C50.3079 26.7947 50.3773 26.3787 50.3773 25.928C50.3773 25.2 50.1519 24.576 49.7013 24.056C49.2853 23.536 48.7133 23.276 47.9853 23.276ZM76.3062 32.948C76.6875 31.9427 77.2942 31.2667 78.1262 30.92C78.9582 30.5733 79.7555 30.4867 80.5182 30.66C81.2809 30.8333 81.8875 31.232 82.3382 31.856C82.8235 32.4453 82.9102 33.208 82.5982 34.144C81.1075 38.4427 79.0449 41.7707 76.4102 44.128C73.7755 46.4507 70.7769 47.612 67.4142 47.612C66.0622 47.612 64.7795 47.4213 63.5662 47.04C62.3529 46.6587 61.2782 46.104 60.3422 45.376C59.4409 44.648 58.7129 43.764 58.1582 42.724C57.6035 41.684 57.3262 40.5053 57.3262 39.188C57.3262 38.1133 57.5342 36.952 57.9502 35.704V35.756C58.3315 34.6467 58.6955 33.624 59.0422 32.688C59.3889 31.7173 59.7182 30.764 60.0302 29.828C60.3769 28.892 60.7235 27.956 61.0702 27.02C61.4169 26.0493 61.7809 25.0093 62.1622 23.9H60.4462C59.6835 23.9 59.0942 23.588 58.6782 22.964C58.2622 22.3053 58.0889 21.5947 58.1582 20.832C58.2622 20.0347 58.6262 19.324 59.2502 18.7C59.8742 18.0413 60.8449 17.712 62.1622 17.712H64.3462L68.2982 6.74C68.7142 5.42266 69.3902 4.556 70.3262 4.14C71.2969 3.724 72.2329 3.63733 73.1342 3.88C74.0355 4.088 74.7635 4.57333 75.3182 5.336C75.9075 6.064 76.0462 6.93066 75.7342 7.936L72.3022 17.712H74.6422C75.7515 17.712 76.5315 18.0413 76.9822 18.7C77.4329 19.324 77.5889 20.0347 77.4502 20.832C77.3462 21.5947 76.9475 22.3053 76.2542 22.964C75.5609 23.588 74.6249 23.9 73.4462 23.9H70.0662L65.1262 37.732C64.9875 38.044 64.9182 38.4253 64.9182 38.876C64.9182 39.5693 65.1782 40.1587 65.6982 40.644C66.2529 41.1293 66.9982 41.372 67.9342 41.372C69.4595 41.372 70.9675 40.696 72.4582 39.344C73.9835 37.9573 75.2662 35.8253 76.3062 32.948ZM143.801 32.324C144.113 31.284 144.668 30.5733 145.465 30.192C146.297 29.8107 147.095 29.724 147.857 29.932C148.655 30.1053 149.296 30.5387 149.781 31.232C150.267 31.8907 150.336 32.7573 149.989 33.832C149.192 36.3627 148.256 38.512 147.181 40.28C146.107 42.048 144.945 43.4867 143.697 44.596C142.484 45.6707 141.184 46.4507 139.797 46.936C138.411 47.456 137.007 47.716 135.585 47.716C134.337 47.716 133.159 47.5253 132.049 47.144C130.94 46.7973 129.969 46.2773 129.137 45.584C128.305 44.8907 127.647 44.0413 127.161 43.036C126.676 42.0307 126.433 40.8867 126.433 39.604C126.433 38.3213 126.676 36.9867 127.161 35.6L134.025 16.152C134.129 15.84 134.216 15.5453 134.285 15.268C134.355 14.956 134.389 14.6613 134.389 14.384C134.389 13.6213 134.164 13.0147 133.713 12.564C133.263 12.0787 132.673 11.836 131.945 11.836C130.767 11.836 129.588 12.356 128.409 13.396C127.265 14.436 126.364 15.892 125.705 17.764L116.397 44.336C116.085 45.2373 115.617 45.948 114.993 46.468C114.369 47.0227 113.693 47.3867 112.965 47.56C112.237 47.7333 111.509 47.7333 110.781 47.56C110.088 47.4213 109.499 47.1267 109.013 46.676C108.563 46.2253 108.251 45.636 108.077 44.908C107.939 44.1453 108.06 43.2613 108.441 42.256L117.125 17.92C117.576 16.776 117.836 15.8227 117.905 15.06C118.009 14.2627 117.975 13.6213 117.801 13.136C117.663 12.6507 117.42 12.304 117.073 12.096C116.761 11.888 116.397 11.784 115.981 11.784C114.803 11.784 113.641 12.2867 112.497 13.292C111.353 14.2627 110.4 15.528 109.637 17.088L100.017 44.44C99.7054 45.3067 99.2374 46 98.6134 46.52C98.024 47.04 97.3827 47.3867 96.6894 47.56C95.996 47.768 95.3027 47.8027 94.6094 47.664C93.916 47.5253 93.3267 47.248 92.8414 46.832C92.3214 46.416 91.9574 45.8613 91.7494 45.168C91.5414 44.4747 91.576 43.66 91.8534 42.724L104.801 5.908C105.217 4.764 105.841 4.00133 106.673 3.62C107.505 3.204 108.355 3.048 109.221 3.152C110.088 3.256 110.868 3.55066 111.561 4.036C112.289 4.48666 112.757 5.00667 112.965 5.596C113 5.52666 113.173 5.35333 113.485 5.076C113.832 4.79867 114.265 4.52133 114.785 4.244C115.34 3.932 115.999 3.672 116.761 3.464C117.524 3.256 118.356 3.18666 119.257 3.256C120.817 3.36 122.031 3.74133 122.897 4.4C123.799 5.024 124.631 5.908 125.393 7.052C126.607 5.76933 128.063 4.816 129.761 4.192C131.495 3.568 133.141 3.256 134.701 3.256C136.019 3.256 137.215 3.48133 138.289 3.932C139.399 4.348 140.335 4.93733 141.097 5.7C141.895 6.46267 142.501 7.364 142.917 8.404C143.368 9.444 143.593 10.5707 143.593 11.784C143.593 13.0667 143.368 14.332 142.917 15.58V15.528L134.961 37.732C134.857 38.044 134.771 38.3387 134.701 38.616C134.632 38.8933 134.597 39.1533 134.597 39.396C134.597 39.916 134.753 40.332 135.065 40.644C135.377 40.956 135.793 41.112 136.313 41.112C137.527 41.112 138.792 40.4187 140.109 39.032C141.461 37.6107 142.692 35.3747 143.801 32.324ZM170.484 33.676C170.727 32.9133 171.091 32.3067 171.576 31.856C172.062 31.4053 172.582 31.1107 173.136 30.972C173.726 30.7987 174.298 30.764 174.852 30.868C175.442 30.972 175.927 31.2147 176.308 31.596C176.69 31.9773 176.932 32.48 177.036 33.104C177.14 33.6933 177.019 34.404 176.672 35.236C176.464 35.7907 176.274 36.2413 176.1 36.588C175.962 36.9 175.788 37.2987 175.58 37.784C174.679 39.656 173.708 41.2333 172.668 42.516C171.628 43.764 170.554 44.7693 169.444 45.532C168.335 46.26 167.208 46.78 166.064 47.092C164.92 47.4387 163.811 47.612 162.736 47.612C162.32 47.612 161.783 47.5773 161.124 47.508C160.5 47.4387 159.842 47.2827 159.148 47.04C158.455 46.832 157.779 46.52 157.12 46.104C156.496 45.688 155.994 45.1507 155.612 44.492C154.676 45.324 153.619 45.9653 152.44 46.416C151.296 46.9013 150.135 47.144 148.956 47.144C147.812 47.144 146.738 46.936 145.732 46.52C144.762 46.104 143.912 45.5493 143.184 44.856C142.491 44.128 141.936 43.296 141.52 42.36C141.104 41.3893 140.896 40.3667 140.896 39.292C140.896 38.8067 140.948 38.3387 141.052 37.888C141.122 37.4373 141.243 36.9693 141.416 36.484L146.304 22.704C147.067 20.728 148.246 19.2547 149.84 18.284C151.47 17.3133 153.151 16.828 154.884 16.828C156.34 16.828 157.571 17.0187 158.576 17.4C159.582 17.7467 160.344 18.0933 160.864 18.44C161.488 17.6773 162.286 17.192 163.256 16.984C164.262 16.7413 165.18 16.776 166.012 17.088C166.844 17.4 167.486 17.972 167.936 18.804C168.387 19.6013 168.387 20.6587 167.936 21.976L162.112 38.616C161.939 39.24 161.852 39.7427 161.852 40.124C161.852 40.9907 162.32 41.424 163.256 41.424C164.435 41.424 165.648 40.8173 166.896 39.604C168.144 38.3907 169.34 36.4147 170.484 33.676ZM150.672 39.604C150.915 39.6733 151.21 39.6733 151.556 39.604C151.938 39.5347 152.336 39.3613 152.752 39.084C153.168 38.8067 153.602 38.3907 154.052 37.836C154.503 37.2467 154.919 36.4667 155.3 35.496L157.172 30.14C157.588 28.892 157.779 27.904 157.744 27.176C157.744 26.4133 157.64 25.8413 157.432 25.46C157.224 25.044 156.999 24.784 156.756 24.68C156.514 24.5413 156.375 24.472 156.34 24.472C156.306 24.4373 156.15 24.4027 155.872 24.368C155.63 24.2987 155.318 24.3507 154.936 24.524C154.555 24.6627 154.139 24.992 153.688 25.512C153.272 25.9973 152.856 26.7947 152.44 27.904L149.736 35.964C149.632 36.2413 149.546 36.5707 149.476 36.952C149.407 37.2987 149.39 37.6627 149.424 38.044C149.459 38.3907 149.563 38.72 149.736 39.032C149.944 39.3093 150.256 39.5 150.672 39.604ZM187.72 32.948C188.102 31.9427 188.708 31.2667 189.54 30.92C190.372 30.5733 191.17 30.4867 191.932 30.66C192.695 30.8333 193.302 31.232 193.752 31.856C194.238 32.4453 194.324 33.208 194.012 34.144C192.522 38.4427 190.459 41.7707 187.824 44.128C185.19 46.4507 182.191 47.612 178.828 47.612C177.476 47.612 176.194 47.4213 174.98 47.04C173.767 46.6587 172.692 46.104 171.756 45.376C170.855 44.648 170.127 43.764 169.572 42.724C169.018 41.684 168.74 40.5053 168.74 39.188C168.74 38.1133 168.948 36.952 169.364 35.704V35.756C169.746 34.6467 170.11 33.624 170.456 32.688C170.803 31.7173 171.132 30.764 171.444 29.828C171.791 28.892 172.138 27.956 172.484 27.02C172.831 26.0493 173.195 25.0093 173.576 23.9H171.86C171.098 23.9 170.508 23.588 170.092 22.964C169.676 22.3053 169.503 21.5947 169.572 20.832C169.676 20.0347 170.04 19.324 170.664 18.7C171.288 18.0413 172.259 17.712 173.576 17.712H175.76L179.712 6.74C180.128 5.42266 180.804 4.556 181.74 4.14C182.711 3.724 183.647 3.63733 184.548 3.88C185.45 4.088 186.178 4.57333 186.732 5.336C187.322 6.064 187.46 6.93066 187.148 7.936L183.716 17.712H186.056C187.166 17.712 187.946 18.0413 188.396 18.7C188.847 19.324 189.003 20.0347 188.864 20.832C188.76 21.5947 188.362 22.3053 187.668 22.964C186.975 23.588 186.039 23.9 184.86 23.9H181.48L176.54 37.732C176.402 38.044 176.332 38.4253 176.332 38.876C176.332 39.5693 176.592 40.1587 177.112 40.644C177.667 41.1293 178.412 41.372 179.348 41.372C180.874 41.372 182.382 40.696 183.872 39.344C185.398 37.9573 186.68 35.8253 187.72 32.948ZM211.336 32.22C211.648 31.284 212.203 30.66 213 30.348C213.832 30.036 214.629 29.984 215.392 30.192C216.155 30.4 216.779 30.8333 217.264 31.492C217.749 32.116 217.819 32.896 217.472 33.832C216.64 36.1893 215.565 38.2347 214.248 39.968C212.931 41.7013 211.44 43.14 209.776 44.284C208.147 45.428 206.396 46.2773 204.524 46.832C202.652 47.3867 200.763 47.664 198.856 47.664C196.949 47.664 195.199 47.404 193.604 46.884C192.044 46.364 190.692 45.6533 189.548 44.752C188.439 43.8507 187.572 42.776 186.948 41.528C186.324 40.2453 186.012 38.8587 186.012 37.368C186.012 36.1893 186.22 34.976 186.636 33.728L189.6 24.992C190.051 23.64 190.657 22.4613 191.42 21.456C192.217 20.4507 193.084 19.636 194.02 19.012C194.991 18.3533 196.013 17.868 197.088 17.556C198.197 17.244 199.307 17.088 200.416 17.088C201.837 17.088 203.12 17.4 204.264 18.024C205.443 18.648 206.379 19.4973 207.072 20.572C207.8 21.6467 208.233 22.8773 208.372 24.264C208.545 25.6507 208.355 27.124 207.8 28.684C207.211 30.2093 206.396 31.1973 205.356 31.648C204.351 32.064 203.397 32.116 202.496 31.804C201.629 31.492 200.971 30.92 200.52 30.088C200.069 29.2213 200.104 28.268 200.624 27.228C201.109 26.3267 201.283 25.5467 201.144 24.888C201.005 24.2293 200.537 23.8653 199.74 23.796C199.289 23.7613 198.839 23.9347 198.388 24.316C197.937 24.6627 197.591 25.1653 197.348 25.824V25.772L194.124 34.82C193.916 35.5133 193.812 36.1373 193.812 36.692C193.812 38.0093 194.332 39.1187 195.372 40.02C196.447 40.9213 197.885 41.372 199.688 41.372C200.659 41.372 201.681 41.216 202.756 40.904C203.865 40.5573 204.94 40.02 205.98 39.292C207.02 38.564 208.008 37.628 208.944 36.484C209.88 35.3053 210.677 33.884 211.336 32.22ZM239.066 32.532C239.378 31.492 239.95 30.7987 240.782 30.452C241.614 30.1053 242.411 30.0187 243.174 30.192C243.971 30.3653 244.612 30.7813 245.098 31.44C245.583 32.064 245.67 32.8267 245.358 33.728C244.422 36.432 243.382 38.6853 242.238 40.488C241.094 42.256 239.898 43.6773 238.65 44.752C237.402 45.792 236.119 46.52 234.802 46.936C233.519 47.3867 232.254 47.612 231.006 47.612C229.896 47.612 228.822 47.456 227.782 47.144C226.776 46.832 225.875 46.364 225.078 45.74C224.28 45.116 223.639 44.336 223.154 43.4C222.668 42.464 222.426 41.3893 222.426 40.176C222.426 39.136 222.634 37.992 223.05 36.744V36.796L226.794 26.136C226.932 25.8587 227.002 25.5467 227.002 25.2C227.002 24.7147 226.828 24.316 226.482 24.004C226.17 23.6573 225.754 23.484 225.234 23.484C224.436 23.484 223.622 23.8133 222.79 24.472C221.992 25.1307 221.316 25.9627 220.762 26.968L214.522 44.492C214.002 45.8787 213.256 46.78 212.286 47.196C211.315 47.6467 210.396 47.716 209.53 47.404C208.663 47.092 207.987 46.4507 207.502 45.48C207.016 44.4747 207.034 43.244 207.554 41.788L219.722 7.728C220.068 6.61867 220.536 5.752 221.126 5.128C221.715 4.504 222.339 4.10533 222.998 3.932C223.656 3.724 224.298 3.724 224.922 3.932C225.546 4.10533 226.048 4.452 226.43 4.972C226.846 5.45733 227.106 6.09866 227.21 6.896C227.314 7.69333 227.158 8.59466 226.742 9.6L223.934 17.816C224.974 17.3653 226.083 17.14 227.262 17.14C228.302 17.14 229.272 17.3307 230.174 17.712C231.11 18.0933 231.907 18.6133 232.566 19.272C233.259 19.9307 233.796 20.7107 234.178 21.612C234.559 22.5133 234.75 23.484 234.75 24.524C234.75 25.4253 234.594 26.3613 234.282 27.332L230.018 39.396C229.914 39.604 229.862 39.8293 229.862 40.072C229.862 40.4533 230 40.7827 230.278 41.06C230.59 41.3027 230.988 41.424 231.474 41.424C232.652 41.424 233.918 40.7307 235.27 39.344C236.656 37.9227 237.922 35.652 239.066 32.532Z" fill="black"/>
</svg>
